<svg width="206" height="67" viewBox="0 0 206 67" fill="none" xmlns="http://www.w3.org/2000/svg">
<path d="M97.6104 41.5861C96.6611 42.6408 95.2725 43.4904 93.4443 44.1349C91.6162 44.7795 89.6123 45.1017 87.4326 45.1017C84.0811 45.1017 81.4033 44.0764 79.3994 42.0256C77.3955 39.9748 76.3232 37.1213 76.1826 33.465L76.165 31.2502C76.165 28.7307 76.6104 26.5334 77.501 24.6584C78.3916 22.7717 79.6631 21.3244 81.3154 20.3166C82.9795 19.2971 84.9014 18.7873 87.0811 18.7873C90.2686 18.7873 92.7412 19.5197 94.499 20.9846C96.2686 22.4377 97.2998 24.6115 97.5928 27.506H91.6514C91.4404 26.0764 90.9834 25.0568 90.2803 24.4474C89.5771 23.8381 88.5811 23.5334 87.292 23.5334C85.7451 23.5334 84.5498 24.1896 83.7061 25.5021C82.8623 26.8146 82.4346 28.6896 82.4229 31.1271V32.674C82.4229 35.2287 82.8564 37.1506 83.7236 38.4396C84.6025 39.717 85.9795 40.3557 87.8545 40.3557C89.46 40.3557 90.6553 39.9982 91.4404 39.2834V35.3107H87.1514V31.0744H97.6104V41.5861ZM107.173 44.7502H101.231V25.7307H107.173V44.7502ZM100.88 20.8264C100.88 19.9826 101.185 19.2912 101.794 18.7521C102.403 18.2131 103.194 17.9435 104.167 17.9435C105.14 17.9435 105.931 18.2131 106.54 18.7521C107.149 19.2912 107.454 19.9826 107.454 20.8264C107.454 21.6701 107.149 22.3615 106.54 22.9006C105.931 23.4396 105.14 23.7092 104.167 23.7092C103.194 23.7092 102.403 23.4396 101.794 22.9006C101.185 22.3615 100.88 21.6701 100.88 20.8264ZM117.737 21.0021V25.7307H120.866V29.8439H117.737V38.5451C117.737 39.2599 117.866 39.758 118.124 40.0392C118.382 40.3205 118.892 40.4611 119.653 40.4611C120.239 40.4611 120.731 40.426 121.13 40.3557V44.592C120.063 44.9318 118.95 45.1017 117.79 45.1017C115.751 45.1017 114.245 44.6213 113.272 43.6603C112.3 42.6994 111.813 41.2404 111.813 39.2834V29.8439H109.388V25.7307H111.813V21.0021H117.737ZM128.653 25.7307L128.847 27.9631C130.159 26.2404 131.97 25.3791 134.278 25.3791C136.259 25.3791 137.735 25.9709 138.708 27.1545C139.692 28.3381 140.202 30.1193 140.237 32.4982V44.7502H134.296V32.7443C134.296 31.7834 134.103 31.0803 133.716 30.6349C133.329 30.1779 132.626 29.9494 131.606 29.9494C130.446 29.9494 129.585 30.4064 129.022 31.3205V44.7502H123.099V25.7307H128.653ZM149.782 44.7502H143.841V25.7307H149.782V44.7502ZM143.489 20.8264C143.489 19.9826 143.794 19.2912 144.403 18.7521C145.013 18.2131 145.804 17.9435 146.776 17.9435C147.749 17.9435 148.54 18.2131 149.149 18.7521C149.759 19.2912 150.063 19.9826 150.063 20.8264C150.063 21.6701 149.759 22.3615 149.149 22.9006C148.54 23.4396 147.749 23.7092 146.776 23.7092C145.804 23.7092 145.013 23.4396 144.403 22.9006C143.794 22.3615 143.489 21.6701 143.489 20.8264ZM152.753 35.0998C152.753 33.1779 153.069 31.4787 153.702 30.0021C154.335 28.5256 155.243 27.3889 156.427 26.592C157.61 25.7834 158.987 25.3791 160.558 25.3791C162.538 25.3791 164.085 26.0471 165.198 27.383L165.409 25.7307H170.788V44.0295C170.788 45.7053 170.396 47.1584 169.61 48.3889C168.837 49.631 167.712 50.5803 166.235 51.2365C164.759 51.9045 163.048 52.2385 161.103 52.2385C159.708 52.2385 158.354 51.9748 157.042 51.4474C155.741 50.9201 154.745 50.2346 154.054 49.3908L156.532 45.9103C157.634 47.2111 159.087 47.8615 160.892 47.8615C163.517 47.8615 164.829 46.5139 164.829 43.8185V43.2209C163.692 44.4748 162.257 45.1017 160.522 45.1017C158.202 45.1017 156.327 44.217 154.897 42.4474C153.468 40.6662 152.753 38.2873 152.753 35.3107V35.0998ZM158.694 35.4689C158.694 37.0275 158.987 38.2639 159.573 39.1779C160.159 40.0803 160.979 40.5314 162.034 40.5314C163.312 40.5314 164.243 40.1037 164.829 39.2482V31.2502C164.255 30.383 163.335 29.9494 162.069 29.9494C161.015 29.9494 160.188 30.424 159.591 31.3732C158.993 32.3107 158.694 33.676 158.694 35.4689ZM179.946 27.7697C181.212 26.176 182.829 25.3791 184.798 25.3791C186.896 25.3791 188.478 26.0002 189.544 27.2424C190.61 28.4846 191.155 30.3185 191.179 32.7443V44.7502H185.237V32.8849C185.237 31.8771 185.032 31.1389 184.622 30.6701C184.212 30.1896 183.515 29.9494 182.53 29.9494C181.312 29.9494 180.45 30.3361 179.946 31.1096V44.7502H174.022V17.7502H179.946V27.7697ZM201.374 21.0021V25.7307H204.503V29.8439H201.374V38.5451C201.374 39.2599 201.503 39.758 201.761 40.0392C202.019 40.3205 202.528 40.4611 203.29 40.4611C203.876 40.4611 204.368 40.426 204.767 40.3557V44.592C203.7 44.9318 202.587 45.1017 201.427 45.1017C199.388 45.1017 197.882 44.6213 196.909 43.6603C195.937 42.6994 195.45 41.2404 195.45 39.2834V29.8439H193.024V25.7307H195.45V21.0021H201.374Z" fill="#E3E3E3"/>
<path d="M29.0561 30.8687L9.85869 30.8432C10.7234 22.2138 16.262 14.7648 24.2747 11.4547C32.2874 8.14453 41.4772 9.50907 48.1943 15.0063L34.6072 28.5766C33.135 30.047 31.1382 30.8715 29.0561 30.8687Z" fill="#E3E3E3"/>
<path d="M41.1424 30.5873L56.6732 30.6227C56.8685 32.3717 56.8687 34.1368 56.6736 35.8853L41.1428 35.8796C39.9441 35.8791 38.794 35.4019 37.9463 34.5532L37.455 34.0612C36.9951 33.6007 36.995 32.8551 37.4549 32.3958L37.9461 31.9052C38.7937 31.0587 39.9436 30.5845 41.1424 30.5873Z" fill="#E3E3E3"/>
<path d="M45.3169 24.5438L51.5262 18.3423C53.365 20.5643 54.7768 23.1071 55.6902 25.842L45.8766 25.8847C45.443 25.8866 45.0895 25.5367 45.087 25.1031C45.0858 24.8933 45.1686 24.6919 45.3169 24.5438Z" fill="#E3E3E3"/>
<path d="M45.8669 40.5871L55.6421 40.614C54.7291 43.3465 53.3177 45.8855 51.4793 48.1027L45.3108 41.9265C45.0042 41.6195 45.0041 41.1224 45.3107 40.8163C45.4582 40.6689 45.6583 40.5865 45.8669 40.5871Z" fill="#E3E3E3"/>
<path d="M34.6112 37.8749L48.1982 51.4788C41.4843 56.948 32.3041 58.2843 24.2977 54.9578C16.2914 51.6313 10.7522 44.1795 9.87658 35.557L29.0539 35.5682C31.1381 35.5694 33.1374 36.3993 34.6112 37.8749Z" fill="#E3E3E3"/>
</svg>
